<svg id="svg" version="1.1" xmlns="http://www.w3.org/2000/svg" xmlns:xlink="http://www.w3.org/1999/xlink" width="400" height="400" viewBox="0, 0, 400,400"><g id="svgg"><path id="path0" d="M0.020 45.410 C 0.041 90.670,0.043 90.814,0.793 88.867 C 6.019 75.304,26.347 82.803,21.658 96.565 C 18.408 106.104,4.161 106.049,0.786 96.484 C 0.032 94.346,0.028 94.710,0.042 177.148 C 0.053 246.590,0.139 259.733,0.576 258.547 C 9.508 234.273,47.814 245.303,42.441 270.602 C 37.911 291.936,10.082 295.027,1.085 275.195 L 0.022 272.852 0.011 336.426 L 0.000 400.000 34.668 399.982 L 69.336 399.964 67.529 399.022 C 57.219 393.652,60.875 378.043,72.461 377.965 C 84.504 377.884,87.959 394.597,76.893 399.402 C 75.747 399.899,95.590 399.971,237.793 399.985 L 400.000 400.000 399.995 235.449 L 399.991 70.898 399.005 72.623 C 393.077 82.993,377.279 78.110,378.225 66.199 C 379.096 55.230,394.042 52.260,399.202 62.031 C 399.965 63.476,399.965 63.466,399.983 31.738 L 400.000 0.000 388.775 -0.000 L 377.551 -0.000 379.107 0.832 C 400.091 12.049,392.650 43.739,369.007 43.847 C 356.163 43.906,347.297 35.223,346.062 21.373 C 345.524 15.342,345.419 15.216,342.064 16.558 C 334.996 19.386,329.021 13.718,332.612 7.591 C 335.591 2.508,342.117 3.583,345.392 9.695 C 346.325 11.436,347.192 11.253,349.218 8.887 C 352.762 4.747,355.095 2.737,358.359 1.012 L 360.273 -0.000 180.136 -0.000 L 0.000 0.000 0.020 45.410 M136.659 63.176 C 137.443 63.548,140.721 66.429,143.944 69.578 C 152.833 78.263,152.306 78.150,161.914 73.430 C 168.549 70.171,174.163 68.064,179.650 66.772 C 181.497 66.338,183.359 65.899,183.789 65.797 C 200.479 61.851,222.527 65.159,240.039 74.237 C 247.593 78.153,247.614 78.147,255.932 70.059 C 263.603 62.599,265.886 61.403,269.191 63.112 C 273.477 65.328,272.160 69.223,264.443 77.159 C 257.038 84.774,256.887 85.515,261.695 90.712 C 273.382 103.344,281.034 118.915,283.727 135.547 C 284.436 139.923,284.638 141.954,284.992 148.242 C 285.392 155.335,285.606 155.592,292.008 156.661 C 301.184 158.193,307.653 164.004,309.815 172.656 C 310.765 176.460,310.591 245.973,309.624 248.828 C 306.369 258.435,298.827 263.966,289.472 263.604 L 286.170 263.477 283.905 267.871 C 281.512 272.514,281.207 274.009,282.040 277.008 C 282.538 278.801,282.121 279.961,279.953 282.813 L 278.320 284.961 278.125 309.375 C 277.877 340.431,279.313 337.124,261.914 346.687 C 260.840 347.278,257.939 348.941,255.469 350.384 C 244.911 356.548,240.120 359.316,235.156 362.117 C 227.582 366.392,225.117 367.821,216.016 373.214 C 202.344 381.315,200.734 381.592,193.648 377.074 C 192.196 376.148,190.925 375.391,190.824 375.391 C 190.723 375.391,189.714 374.801,188.582 374.080 C 187.450 373.359,184.854 371.884,182.813 370.804 C 179.100 368.838,175.081 366.608,170.313 363.865 C 168.916 363.062,166.455 361.698,164.844 360.834 C 163.232 359.970,160.505 358.437,158.782 357.427 C 157.060 356.417,151.962 353.514,147.454 350.977 C 129.257 340.735,126.881 339.295,125.114 337.443 C 122.483 334.685,122.527 335.120,122.287 309.304 L 122.070 285.991 120.405 283.718 C 117.585 279.871,117.334 279.186,117.958 277.039 C 120.173 269.424,116.736 264.404,108.796 263.653 C 99.899 262.811,93.364 257.230,90.749 248.242 C 89.770 244.876,89.460 180.378,90.395 174.569 C 92.059 164.230,99.054 157.759,110.156 156.288 C 114.626 155.696,115.060 155.058,115.395 148.585 C 116.628 124.784,123.820 106.896,138.618 90.820 C 143.534 85.480,143.400 84.841,135.704 76.898 C 129.487 70.482,128.150 67.922,129.517 65.043 C 130.684 62.582,133.729 61.786,136.659 63.176 M54.994 281.545 C 59.238 283.490,59.154 290.053,54.857 292.182 C 49.098 295.035,43.503 288.459,47.268 283.262 C 47.914 282.370,48.485 281.638,48.538 281.635 C 48.590 281.632,49.336 281.380,50.195 281.075 C 51.852 280.488,52.916 280.593,54.994 281.545 M363.801 322.261 C 375.176 328.020,370.351 345.457,357.664 344.438 C 345.800 343.486,342.935 327.374,353.707 322.185 C 356.754 320.717,360.811 320.748,363.801 322.261 " stroke="none" fill="#b47ceb" fill-rule="evenodd"></path><path id="path1" d="M191.406 69.547 C 181.350 70.782,173.287 73.271,163.388 78.198 C 156.373 81.689,156.215 81.745,152.705 81.994 C 149.088 82.249,148.047 82.757,148.047 84.264 C 148.047 85.224,146.554 89.046,145.809 89.993 C 145.405 90.507,143.827 92.310,142.303 93.999 C 128.928 108.826,122.125 124.370,120.702 143.359 C 119.470 159.796,119.105 160.461,110.857 161.316 C 104.061 162.021,99.658 164.716,96.986 169.808 C 94.674 174.212,94.726 173.249,94.727 210.938 L 94.728 245.508 95.608 247.820 C 99.254 257.401,108.020 261.044,108.424 253.147 C 108.479 252.061,108.364 251.172,108.169 251.172 C 107.973 251.172,107.813 250.908,107.813 250.586 C 107.813 250.264,107.674 250.000,107.505 250.000 C 107.336 250.000,107.155 249.448,107.104 248.773 C 106.950 246.754,105.395 244.556,104.987 245.780 C 104.382 247.596,101.023 244.011,99.755 240.197 C 98.917 237.674,98.427 184.048,99.185 177.847 C 100.280 168.894,105.408 164.944,114.469 166.075 C 119.909 166.754,120.318 166.577,125.879 161.143 C 131.303 155.842,130.983 156.958,127.968 153.854 C 124.747 150.535,124.348 148.989,124.966 142.218 C 129.761 89.668,185.506 58.068,233.070 80.936 C 256.734 92.315,272.642 115.375,275.457 142.382 C 276.151 149.043,275.719 150.601,272.238 153.984 L 269.545 156.600 271.394 158.085 C 272.410 158.902,274.648 161.006,276.367 162.760 C 280.043 166.512,280.772 166.762,286.133 166.103 C 294.721 165.047,299.936 168.831,301.210 177.042 C 301.441 178.531,301.547 192.437,301.479 212.500 C 301.351 250.361,301.682 247.045,297.482 252.528 C 294.416 256.531,294.781 258.129,298.332 256.245 C 302.639 253.960,304.893 249.595,305.497 242.369 C 306.254 233.305,305.770 176.565,304.909 173.510 C 302.854 166.216,297.747 162.126,289.648 161.291 C 282.117 160.514,280.901 158.994,280.304 149.609 C 279.637 139.124,278.154 130.602,275.806 123.777 C 273.743 117.779,273.136 116.389,269.604 109.570 C 268.944 108.295,266.393 104.355,264.419 101.563 C 262.869 99.369,259.893 95.838,257.002 92.762 C 254.635 90.244,252.964 87.365,252.531 85.057 C 252.061 82.552,251.626 82.272,247.778 82.000 C 244.389 81.760,244.139 81.671,237.095 78.198 C 222.200 70.852,205.906 67.767,191.406 69.547 M223.633 192.175 C 222.344 192.601,218.068 194.527,214.132 196.453 C 207.037 199.926,205.731 200.357,199.930 201.139 C 191.518 202.273,185.740 207.415,187.120 212.540 C 187.614 214.376,193.483 229.179,194.548 231.277 C 198.153 238.377,207.514 236.689,215.406 227.515 C 217.041 225.613,217.961 224.977,221.460 223.326 C 223.729 222.256,227.735 220.363,230.361 219.120 C 238.908 215.075,242.279 210.826,242.253 204.131 C 242.219 195.681,232.295 189.308,223.633 192.175 M159.180 227.396 C 146.894 232.373,140.234 236.785,140.234 239.950 C 140.234 244.308,146.993 250.561,151.671 250.530 C 154.360 250.511,163.495 246.208,166.022 243.768 C 174.521 235.565,169.380 223.265,159.180 227.396 M163.956 253.107 C 156.941 255.348,156.644 258.593,162.837 265.329 C 167.373 270.262,167.655 270.892,167.503 275.757 C 167.300 282.281,169.222 283.324,173.462 278.990 C 177.007 275.367,177.186 274.715,176.590 267.597 C 175.401 253.383,172.718 250.306,163.956 253.107 M257.422 262.500 C 256.128 263.794,256.636 265.989,258.654 267.825 C 262.075 270.937,266.406 270.488,266.406 267.022 C 266.406 263.408,259.826 260.096,257.422 262.500 M239.064 268.262 C 239.068 268.983,240.696 271.134,241.125 270.984 C 241.731 270.772,241.519 269.541,240.725 268.652 C 240.109 267.964,239.061 267.718,239.064 268.262 M234.044 272.962 C 233.201 273.243,233.591 273.811,235.184 274.623 C 237.763 275.939,241.449 275.121,238.989 273.779 C 238.018 273.250,234.784 272.715,234.044 272.962 M248.116 278.223 C 245.227 286.002,246.686 287.778,251.677 282.558 C 255.218 278.856,255.387 277.745,252.610 276.427 C 249.927 275.154,249.139 275.469,248.116 278.223 " stroke="none" fill="#312121" fill-rule="evenodd"></path><path id="path2" d="M366.602 1.018 C 364.184 1.346,362.542 1.987,362.318 2.691 C 362.193 3.088,360.679 4.798,358.954 6.491 C 349.744 15.535,348.937 25.590,356.792 33.419 C 368.388 44.975,387.910 35.280,385.895 18.966 C 385.354 14.582,383.521 11.320,379.265 7.168 C 377.315 5.267,375.478 3.251,375.182 2.689 C 374.867 2.092,374.190 1.577,373.552 1.449 C 371.753 1.090,367.854 0.849,366.602 1.018 M183.097 207.527 C 181.480 211.741,173.929 216.800,166.023 218.969 C 163.986 219.527,160.207 220.962,157.625 222.158 C 155.042 223.353,151.523 224.932,149.805 225.667 C 148.086 226.401,145.300 227.797,143.614 228.768 C 133.578 234.548,129.865 234.988,129.105 230.487 C 128.808 228.732,127.668 228.127,124.539 228.064 C 121.957 228.012,120.608 228.916,115.190 234.332 C 107.979 241.540,107.184 243.815,110.032 249.093 C 110.822 250.559,112.009 252.845,112.669 254.174 C 113.407 255.660,115.009 257.766,116.829 259.643 C 118.457 261.322,120.120 263.267,120.526 263.965 C 120.931 264.663,121.400 265.234,121.569 265.234 C 121.737 265.234,121.875 265.496,121.875 265.816 C 121.875 266.136,122.746 267.359,123.810 268.534 C 125.980 270.931,126.498 271.820,127.912 275.576 C 129.266 279.173,129.822 279.747,139.288 287.305 C 151.583 297.121,152.202 297.438,162.251 299.031 C 164.737 299.426,167.626 301.031,171.231 304.021 C 174.498 306.731,177.502 308.657,186.914 314.080 C 189.277 315.442,193.232 317.907,195.703 319.559 C 198.174 321.210,200.767 322.851,201.465 323.205 C 202.163 323.559,202.734 323.942,202.734 324.057 C 202.734 324.171,202.515 324.133,202.246 323.972 C 201.914 323.772,201.930 323.890,202.294 324.339 C 202.722 324.867,202.733 325.117,202.347 325.581 C 201.981 326.023,201.879 329.751,201.922 341.109 C 201.957 350.307,201.811 357.251,201.543 359.166 C 199.551 373.390,202.062 376.811,210.742 371.699 C 212.676 370.560,214.673 369.414,215.180 369.152 C 215.687 368.890,217.939 367.280,220.183 365.575 C 223.070 363.381,225.829 361.733,229.613 359.944 C 232.554 358.553,235.400 357.186,235.938 356.907 C 238.479 355.585,242.911 353.096,248.438 349.885 C 255.353 345.867,266.469 339.539,268.126 338.676 C 269.835 337.786,272.608 335.209,273.327 333.842 C 274.233 332.119,274.489 322.642,273.776 317.180 C 273.438 314.590,273.242 309.196,273.242 302.502 C 273.242 287.664,273.787 287.889,259.158 296.687 C 255.303 299.006,251.621 301.208,250.977 301.579 C 250.332 301.951,248.135 303.215,246.094 304.387 C 244.053 305.560,241.416 307.100,240.234 307.809 C 239.053 308.518,237.119 309.627,235.938 310.272 C 232.731 312.022,230.840 313.070,229.102 314.063 C 228.242 314.553,226.748 315.395,225.781 315.933 C 224.814 316.471,222.354 317.977,220.313 319.279 C 210.892 325.289,205.995 326.559,203.770 323.572 L 203.047 322.602 204.962 319.797 C 207.172 316.559,209.223 315.243,212.094 315.221 C 220.241 315.158,222.402 313.399,235.742 295.980 C 238.347 292.579,239.356 291.997,241.940 292.409 C 248.302 293.422,250.362 292.537,254.961 286.816 C 257.517 283.637,258.342 282.880,259.968 282.227 L 261.914 281.445 260.547 280.035 C 257.755 277.156,253.405 277.733,255.029 280.767 C 257.732 285.819,247.889 295.439,243.999 291.548 C 242.760 290.310,242.689 289.013,243.623 284.671 C 244.705 279.636,243.476 275.412,240.780 274.897 C 239.636 274.678,239.080 275.346,239.984 275.852 C 242.909 277.489,242.319 282.559,238.695 286.926 C 237.809 287.994,236.978 289.307,236.849 289.844 C 236.488 291.350,234.736 294.981,233.723 296.326 C 233.222 296.991,232.813 297.724,232.813 297.956 C 232.813 298.188,232.197 299.184,231.445 300.169 C 230.693 301.154,230.078 302.117,230.078 302.308 C 230.078 304.199,224.791 308.773,223.675 307.848 C 223.284 307.523,222.712 307.664,221.360 308.420 C 215.956 311.440,213.740 308.948,215.048 301.321 C 216.591 292.330,217.295 290.532,221.455 284.961 C 222.899 283.027,225.076 280.088,226.293 278.428 C 228.572 275.321,230.620 273.828,232.602 273.828 C 233.147 273.828,233.594 273.652,233.594 273.438 C 233.594 272.070,229.616 273.243,226.103 275.647 C 223.869 277.175,223.281 277.406,222.002 277.257 C 219.874 277.009,209.129 273.643,206.399 272.370 C 204.309 271.395,203.690 271.297,199.541 271.293 C 192.271 271.286,190.957 269.608,192.462 262.252 C 194.370 252.928,196.634 251.225,203.638 253.845 C 207.479 255.282,208.889 254.954,209.049 252.584 C 209.171 250.770,210.138 250.264,212.838 250.602 C 214.093 250.759,215.608 250.564,217.773 249.968 C 222.313 248.717,223.287 248.793,226.215 250.623 C 227.588 251.481,229.917 252.702,231.390 253.337 C 235.302 255.024,236.094 256.121,235.814 259.469 C 235.556 262.538,235.945 263.981,237.652 266.297 C 239.098 268.258,239.740 268.481,238.812 266.699 C 238.363 265.838,238.165 264.584,238.196 262.801 C 238.231 260.773,238.099 260.093,237.621 259.825 C 236.907 259.426,237.070 259.021,239.602 254.891 C 240.390 253.606,241.224 251.848,241.457 250.984 C 242.909 245.593,243.709 237.891,242.817 237.891 C 241.322 237.891,239.448 234.548,239.462 231.908 C 239.502 224.310,249.823 221.410,254.959 227.554 L 256.343 229.210 257.710 228.283 C 259.601 226.999,261.412 226.567,264.909 226.565 C 270.483 226.561,270.530 225.830,265.297 220.508 C 261.626 216.774,261.408 216.456,260.359 213.304 C 258.239 206.938,255.940 206.541,250.305 211.569 C 247.091 214.437,245.816 215.041,241.394 215.790 C 237.846 216.392,234.190 217.887,231.268 219.931 C 229.373 221.256,225.966 223.282,223.828 224.354 C 220.053 226.247,219.688 226.504,216.555 229.476 C 214.862 231.081,213.257 232.401,212.988 232.409 C 212.720 232.416,212.500 232.585,212.500 232.784 C 212.500 233.637,204.134 235.938,201.035 235.938 C 198.248 235.938,198.815 241.617,201.860 244.207 C 203.967 246.000,205.100 248.828,203.711 248.828 C 203.343 248.828,203.125 249.199,203.125 249.825 C 203.125 250.977,201.297 251.952,199.134 251.955 C 195.247 251.959,192.118 257.292,191.527 264.920 C 191.092 270.530,192.243 271.560,199.219 271.805 C 206.470 272.061,207.383 273.341,205.898 281.160 C 204.668 287.633,203.099 291.016,201.326 291.016 C 200.959 291.016,200.939 291.361,201.245 292.467 C 203.086 299.136,198.559 301.833,192.999 297.379 C 190.553 295.420,190.237 295.074,188.362 292.309 C 186.828 290.048,186.602 289.875,184.865 289.622 C 181.829 289.180,177.449 285.947,175.404 282.639 C 174.481 281.146,172.630 280.642,170.718 281.364 C 168.362 282.253,167.357 280.507,167.503 275.780 C 167.654 270.889,167.376 270.266,162.837 265.329 C 157.683 259.722,157.124 257.318,160.397 254.822 C 161.957 253.632,165.900 252.344,167.981 252.344 C 171.747 252.344,171.395 246.674,167.522 244.940 L 165.877 244.204 163.896 245.377 C 153.121 251.754,149.307 252.033,144.290 246.808 C 137.515 239.754,138.430 237.393,150.168 231.645 C 163.953 224.894,166.489 224.817,169.559 231.051 C 171.603 235.203,174.601 235.340,179.916 231.525 C 182.745 229.494,183.993 228.928,186.561 228.510 C 192.414 227.557,192.699 226.875,190.006 220.279 C 188.829 217.397,187.598 214.072,187.270 212.891 C 186.323 209.475,185.540 207.935,184.513 207.467 C 183.324 206.925,183.327 206.925,183.097 207.527 M243.596 216.634 C 243.466 216.973,243.359 217.442,243.359 217.675 C 243.359 217.908,243.244 217.983,243.102 217.842 C 242.961 217.701,242.605 217.784,242.312 218.028 C 241.365 218.813,241.325 218.079,242.259 217.073 C 243.304 215.947,243.940 215.738,243.596 216.634 M234.593 222.693 C 235.455 224.087,230.503 230.441,225.856 233.905 C 224.716 234.755,222.854 236.576,221.719 237.951 C 219.905 240.151,219.308 240.588,216.762 241.574 C 215.170 242.192,212.685 243.285,211.240 244.004 C 208.033 245.601,208.068 245.601,206.584 244.083 C 204.129 241.571,205.073 239.820,211.719 234.558 C 213.975 232.771,216.777 230.322,217.946 229.116 C 221.710 225.231,233.379 220.729,234.593 222.693 M252.539 234.341 C 248.682 236.143,248.895 236.642,253.978 237.709 C 261.939 239.381,274.791 246.939,277.164 251.346 C 277.626 252.202,278.407 252.880,279.369 253.258 L 280.859 253.843 280.859 252.344 C 280.859 251.520,280.957 250.591,281.076 250.280 C 281.228 249.885,280.919 249.641,280.049 249.467 C 278.001 249.057,274.688 246.926,273.136 245.019 C 269.367 240.390,269.237 240.289,265.676 239.207 C 261.818 238.036,259.340 236.863,256.664 234.940 C 254.488 233.377,254.575 233.390,252.539 234.341 M285.384 242.048 C 285.015 243.010,285.334 243.071,286.131 242.190 C 286.730 241.528,286.746 241.406,286.235 241.406 C 285.903 241.406,285.520 241.695,285.384 242.048 M176.298 262.344 C 175.988 263.151,176.863 271.750,177.392 273.105 C 178.054 274.799,179.398 274.746,181.130 272.957 C 182.423 271.621,182.796 271.444,183.987 271.598 C 187.229 272.017,186.880 269.970,183.036 266.020 C 178.741 261.607,176.955 260.632,176.298 262.344 M241.406 270.918 C 241.406 272.493,243.870 274.779,246.169 275.337 C 250.891 276.482,250.971 275.591,246.339 273.460 C 244.593 272.656,242.923 271.707,242.628 271.351 C 242.111 270.726,241.406 270.476,241.406 270.918 " stroke="none" fill="#c9953a" fill-rule="evenodd"></path><path id="path3" d="M194.336 68.239 C 183.756 68.937,174.112 71.709,162.891 77.276 L 155.273 81.055 151.374 80.984 C 146.942 80.903,146.894 80.933,146.872 83.789 C 146.851 86.603,145.868 88.402,141.950 92.795 C 126.333 110.305,120.374 125.172,119.179 149.609 C 118.783 157.719,117.815 159.419,113.294 159.952 C 112.320 160.067,110.251 160.333,108.695 160.543 C 101.502 161.517,96.070 166.577,94.339 173.918 C 93.460 177.647,93.468 243.285,94.348 246.663 C 96.619 255.383,104.066 260.919,109.301 257.778 C 110.094 257.303,111.391 256.717,112.184 256.477 L 113.626 256.040 112.546 253.899 C 111.951 252.721,110.819 250.559,110.030 249.093 C 107.185 243.813,107.980 241.539,115.190 234.332 C 120.508 229.016,121.954 228.023,124.329 228.056 C 126.672 228.088,143.345 218.992,168.750 203.821 C 178.795 197.823,184.315 198.278,185.007 205.162 C 185.384 208.916,186.785 211.291,187.250 208.965 C 187.917 205.631,193.871 201.956,199.930 201.139 C 205.731 200.357,207.038 199.926,214.132 196.452 C 225.512 190.880,228.660 190.329,234.228 192.934 C 246.823 198.828,244.838 212.269,230.361 219.120 C 227.735 220.363,223.729 222.256,221.460 223.326 C 217.971 224.972,217.037 225.617,215.406 227.507 C 213.123 230.153,210.342 232.365,206.955 234.232 C 204.681 235.486,204.706 235.583,207.129 234.913 C 208.850 234.438,213.129 231.262,215.878 228.420 C 218.522 225.685,218.996 225.383,224.862 222.686 C 232.181 219.321,235.298 217.653,238.479 215.400 C 239.770 214.486,242.143 213.136,243.753 212.399 C 245.410 211.640,247.950 209.991,249.609 208.597 C 256.084 203.158,260.378 203.879,262.475 210.758 C 263.694 214.756,264.711 216.273,267.969 218.947 C 275.021 224.735,275.020 230.127,267.966 229.539 C 264.561 229.255,262.978 230.047,263.510 231.769 C 263.998 233.351,265.706 235.953,266.546 236.396 C 267.006 236.638,267.471 236.959,267.578 237.109 C 267.686 237.260,268.518 237.850,269.429 238.420 C 270.614 239.163,271.412 240.106,272.237 241.741 C 275.852 248.901,278.754 248.625,281.665 240.846 C 283.728 235.331,288.333 235.001,293.527 239.997 C 297.419 243.740,297.650 246.050,294.714 251.841 C 292.304 256.593,292.419 258.604,295.098 258.585 C 299.397 258.554,304.371 253.244,306.162 246.771 C 307.208 242.992,307.190 177.749,306.142 173.663 C 304.039 165.462,298.429 161.035,289.023 160.153 C 282.518 159.542,281.690 158.321,281.219 148.639 C 280.112 125.923,273.420 109.405,258.704 93.064 C 254.418 88.305,253.866 87.333,253.605 84.089 C 253.361 81.047,253.374 81.055,248.828 81.055 L 245.117 81.055 237.500 77.265 C 222.695 69.898,209.859 67.214,194.336 68.239 M214.844 70.512 C 222.608 71.938,228.597 74.007,237.095 78.198 C 244.139 81.671,244.389 81.760,247.778 82.000 C 251.626 82.272,252.061 82.552,252.531 85.057 C 252.964 87.365,254.635 90.244,257.002 92.762 C 259.893 95.838,262.869 99.369,264.419 101.563 C 266.393 104.355,268.944 108.295,269.604 109.570 C 273.136 116.389,273.743 117.779,275.806 123.777 C 278.154 130.602,279.637 139.124,280.304 149.609 C 280.901 158.994,282.117 160.514,289.648 161.291 C 297.747 162.126,302.854 166.216,304.909 173.510 C 305.770 176.565,306.254 233.305,305.497 242.369 C 304.893 249.595,302.639 253.960,298.332 256.245 C 294.781 258.129,294.416 256.531,297.482 252.528 C 301.682 247.045,301.351 250.361,301.479 212.500 C 301.547 192.437,301.441 178.531,301.210 177.042 C 299.936 168.831,294.721 165.047,286.133 166.103 C 280.772 166.762,280.043 166.512,276.367 162.760 C 274.648 161.006,272.410 158.902,271.394 158.085 L 269.545 156.600 272.238 153.984 C 275.719 150.601,276.151 149.043,275.457 142.382 C 270.354 93.430,222.771 61.986,176.725 77.138 C 148.050 86.574,127.710 112.149,124.966 142.218 C 124.348 148.989,124.747 150.535,127.968 153.854 C 130.983 156.958,131.303 155.842,125.879 161.143 C 120.318 166.577,119.909 166.754,114.469 166.075 C 105.408 164.944,100.280 168.894,99.185 177.847 C 98.427 184.048,98.917 237.674,99.755 240.197 C 101.023 244.011,104.382 247.596,104.987 245.780 C 105.395 244.556,106.950 246.754,107.104 248.773 C 107.155 249.448,107.336 250.000,107.505 250.000 C 107.674 250.000,107.813 250.264,107.813 250.586 C 107.813 250.908,107.973 251.172,108.169 251.172 C 108.364 251.172,108.479 252.061,108.424 253.147 C 108.020 261.044,99.254 257.401,95.608 247.820 L 94.728 245.508 94.727 210.938 C 94.726 173.249,94.674 174.212,96.986 169.808 C 99.658 164.716,104.061 162.021,110.857 161.316 C 119.105 160.461,119.470 159.796,120.702 143.359 C 122.125 124.370,128.928 108.826,142.303 93.999 C 143.827 92.310,145.405 90.507,145.809 89.993 C 146.554 89.046,148.047 85.224,148.047 84.264 C 148.047 82.757,149.088 82.249,152.705 81.994 C 156.215 81.745,156.373 81.689,163.388 78.198 C 180.371 69.746,197.083 67.249,214.844 70.512 M164.492 117.632 C 171.688 120.041,172.567 130.382,165.845 133.541 C 158.320 137.078,150.559 129.434,154.199 122.070 C 156.060 118.308,160.628 116.338,164.492 117.632 M240.929 117.646 C 244.843 118.632,247.763 123.242,247.071 127.342 C 246.179 132.618,239.672 136.081,235.039 133.744 C 225.521 128.944,230.606 115.047,240.929 117.646 M197.605 255.297 C 196.440 255.908,195.548 257.820,194.736 261.450 C 193.270 268.000,194.104 269.391,199.346 269.146 C 201.507 269.045,204.475 269.824,207.723 271.345 C 214.403 274.472,219.676 274.947,224.493 272.857 C 229.018 270.894,233.941 270.800,233.980 272.678 C 233.982 272.797,234.731 272.936,235.645 272.987 C 236.558 273.038,237.892 273.289,238.610 273.545 C 239.954 274.025,241.016 273.357,241.016 272.031 C 241.016 271.273,238.976 268.364,238.407 268.311 C 238.123 268.284,237.759 268.230,237.598 268.191 C 237.437 268.152,236.695 267.976,235.950 267.799 C 235.205 267.623,234.327 267.346,233.997 267.183 C 231.711 266.055,229.338 265.298,225.977 264.623 C 225.762 264.580,224.443 264.271,223.047 263.936 C 218.445 262.831,212.328 261.407,210.971 261.125 C 208.924 260.699,204.972 258.814,203.484 257.556 C 201.286 255.696,200.907 255.450,199.721 255.110 C 198.961 254.892,198.260 254.954,197.605 255.297 M176.656 274.373 C 176.340 275.553,175.495 276.858,174.005 278.467 L 171.818 280.830 172.884 281.098 C 174.875 281.597,178.691 275.643,177.652 273.659 L 177.119 272.642 176.656 274.373 M246.617 276.928 C 245.186 277.800,245.131 277.948,244.494 282.632 C 243.330 291.204,248.767 291.757,253.475 283.546 C 255.735 279.605,255.085 279.073,251.951 282.297 C 247.108 287.278,244.912 285.895,247.639 279.583 C 249.214 275.940,249.028 275.457,246.617 276.928 " stroke="none" fill="#65b88a" fill-rule="evenodd"></path><path id="path4" d="M159.345 123.407 C 156.818 125.934,159.276 130.385,162.721 129.521 C 166.899 128.472,166.208 122.266,161.914 122.266 C 160.857 122.266,160.190 122.562,159.345 123.407 M235.907 123.407 C 233.312 126.003,235.789 130.297,239.423 129.499 C 243.536 128.596,242.708 122.266,238.477 122.266 C 237.420 122.266,236.753 122.562,235.907 123.407 M173.231 208.725 C 172.808 209.012,171.672 209.671,170.707 210.190 C 167.860 211.721,162.891 215.494,162.891 216.124 C 162.891 216.424,165.122 216.264,167.969 215.760 C 172.030 215.041,177.433 210.688,176.684 208.738 C 176.421 208.052,174.237 208.044,173.231 208.725 M15.430 249.059 C 14.039 249.400,10.938 250.905,10.938 251.239 C 10.938 251.417,10.744 251.563,10.508 251.563 C 10.272 251.563,9.587 252.046,8.986 252.637 C 4.273 257.270,2.996 258.293,3.354 257.149 C 3.559 256.495,3.542 256.496,3.115 257.166 C 2.862 257.562,2.611 258.089,2.558 258.337 C 2.505 258.586,2.334 259.083,2.177 259.442 C 2.021 259.801,1.832 260.417,1.758 260.809 C 1.683 261.202,1.589 261.523,1.548 261.523 C 1.075 261.523,0.870 267.802,1.280 269.727 C 1.417 270.371,1.634 271.413,1.762 272.043 C 1.889 272.672,2.112 273.376,2.255 273.605 C 2.399 273.835,2.548 274.227,2.586 274.475 C 2.624 274.723,2.862 275.251,3.115 275.647 C 3.528 276.295,3.553 276.298,3.359 275.675 C 3.176 275.089,3.262 275.046,3.915 275.395 C 4.340 275.623,4.687 275.953,4.687 276.130 C 4.687 276.606,10.431 281.235,12.771 282.646 C 27.023 291.235,44.153 274.166,36.841 258.663 C 34.875 254.496,29.610 250.332,25.140 249.410 C 23.577 249.087,16.374 248.827,15.430 249.059 M354.933 325.811 C 346.904 330.686,351.743 342.906,360.694 340.360 C 367.804 338.337,368.401 328.434,361.583 325.586 C 359.703 324.800,356.414 324.912,354.933 325.811 " stroke="none" fill="#f0d388" fill-rule="evenodd"></path><path id="path5" d="M191.515 226.534 C 191.263 226.937,190.125 227.574,188.985 227.949 C 187.846 228.324,185.508 229.378,183.789 230.292 C 177.898 233.422,174.031 234.637,172.131 233.955 L 170.508 233.373 170.437 234.669 C 170.321 236.796,169.202 239.627,167.540 242.000 C 166.680 243.227,166.029 244.260,166.094 244.295 C 166.158 244.330,166.879 244.663,167.696 245.035 C 170.038 246.100,171.387 249.631,170.135 251.419 C 169.596 252.188,169.648 252.255,171.123 252.697 C 173.270 253.340,174.787 255.531,175.592 259.152 C 176.179 261.789,176.289 261.979,177.140 261.816 C 178.950 261.470,188.061 270.104,191.471 275.396 C 196.896 283.817,204.783 285.808,206.277 279.133 C 207.475 273.779,205.806 272.021,199.319 271.804 C 192.235 271.567,191.090 270.556,191.527 264.920 C 192.118 257.292,195.247 251.959,199.134 251.955 C 203.651 251.949,204.065 250.067,200.980 243.555 C 199.315 240.040,199.150 239.447,199.338 237.632 C 199.529 235.777,199.475 235.598,198.657 235.392 C 197.205 235.028,194.779 232.029,193.569 229.102 C 192.178 225.739,192.084 225.622,191.515 226.534 M251.758 237.951 C 245.864 241.171,244.247 242.931,243.723 246.693 C 243.243 250.145,242.695 251.679,240.998 254.324 C 237.569 259.667,237.231 266.077,240.259 268.316 C 240.890 268.782,241.406 269.390,241.406 269.665 C 241.406 270.570,243.507 272.195,246.288 273.440 C 247.792 274.113,249.286 274.896,249.609 275.179 C 249.931 275.462,250.753 275.813,251.434 275.957 C 252.115 276.102,253.168 276.680,253.774 277.241 C 255.884 279.197,266.212 279.130,269.874 277.137 C 280.476 271.367,282.552 255.027,273.615 247.693 C 266.099 241.524,254.599 236.398,251.758 237.951 M262.857 262.483 C 266.070 264.122,267.413 267.352,265.625 269.141 C 263.720 271.046,258.894 269.213,257.189 265.937 C 255.431 262.557,258.880 260.454,262.857 262.483 M229.974 274.639 C 229.065 275.119,227.657 276.569,226.292 278.431 C 225.076 280.089,222.899 283.027,221.455 284.961 C 217.972 289.626,217.414 290.698,216.456 294.569 C 213.624 306.012,213.966 309.501,217.915 309.446 C 221.738 309.394,225.152 306.154,231.836 296.239 C 233.555 293.689,236.093 290.196,237.477 288.477 C 243.230 281.332,243.422 275.391,237.901 275.391 C 237.234 275.391,235.999 275.039,235.156 274.609 C 233.247 273.635,231.861 273.643,229.974 274.639 " stroke="none" fill="#d61927" fill-rule="evenodd"></path><path id="path6" d="M358.395 0.992 C 355.093 2.739,352.774 4.733,349.218 8.887 C 347.192 11.253,346.325 11.436,345.392 9.695 C 342.117 3.583,335.591 2.508,332.612 7.591 C 329.021 13.718,334.996 19.386,342.064 16.558 C 345.419 15.216,345.524 15.342,346.062 21.373 C 347.297 35.223,356.163 43.906,369.007 43.847 C 391.504 43.744,399.945 14.099,380.954 1.889 L 378.320 0.195 369.333 0.078 L 360.346 -0.039 358.395 0.992 M372.949 1.298 C 373.218 1.469,373.607 1.504,373.814 1.376 C 374.021 1.248,374.619 1.809,375.143 2.622 C 375.666 3.436,377.605 5.569,379.451 7.362 C 383.507 11.301,385.361 14.641,385.895 18.966 C 387.910 35.280,368.388 44.975,356.792 33.419 C 348.933 25.587,349.743 15.535,358.964 6.481 C 360.694 4.782,362.109 3.271,362.109 3.123 C 362.109 2.572,363.493 1.300,363.929 1.449 C 364.178 1.534,364.477 1.450,364.593 1.262 C 364.854 0.839,372.277 0.871,372.949 1.298 M159.951 119.946 C 156.250 121.022,154.585 126.112,156.818 129.520 C 158.483 132.061,162.694 132.876,165.253 131.151 C 171.250 127.110,166.904 117.923,159.951 119.946 M236.595 120.097 C 233.791 121.097,232.422 123.037,232.422 126.009 C 232.422 131.687,239.810 134.306,243.303 129.866 C 247.210 124.898,242.474 118.000,236.595 120.097 M164.483 123.407 C 167.302 126.226,164.209 130.814,160.521 129.286 C 156.890 127.782,157.985 122.266,161.914 122.266 C 162.971 122.266,163.638 122.562,164.483 123.407 M241.046 123.407 C 243.925 126.287,240.837 130.841,237.065 129.279 C 233.450 127.781,234.560 122.266,238.477 122.266 C 239.533 122.266,240.200 122.562,241.046 123.407 M176.939 203.684 C 175.391 204.077,166.075 209.236,141.144 223.506 C 133.763 227.730,131.295 228.906,129.807 228.906 C 128.880 228.906,128.835 228.997,129.076 230.371 C 129.883 234.978,133.531 234.576,143.614 228.768 C 145.300 227.797,148.086 226.401,149.805 225.667 C 151.523 224.932,155.042 223.353,157.625 222.158 C 160.207 220.962,163.986 219.527,166.023 218.969 C 174.155 216.738,179.400 213.264,182.972 207.740 C 184.404 205.527,180.368 202.813,176.939 203.684 M176.684 208.738 C 177.433 210.688,172.030 215.041,167.969 215.760 C 165.122 216.264,162.891 216.424,162.891 216.124 C 162.891 215.494,167.860 211.721,170.707 210.190 C 171.672 209.671,172.808 209.012,173.231 208.725 C 174.237 208.044,176.421 208.052,176.684 208.738 M242.259 217.073 C 241.325 218.079,241.365 218.813,242.312 218.028 C 242.605 217.784,242.961 217.701,243.102 217.842 C 243.244 217.983,243.359 217.908,243.359 217.675 C 243.359 217.442,243.466 216.973,243.596 216.634 C 243.940 215.738,243.304 215.947,242.259 217.073 M228.320 223.381 C 223.031 225.205,220.240 226.748,217.946 229.116 C 216.777 230.322,213.975 232.771,211.719 234.558 C 205.073 239.820,204.129 241.571,206.584 244.083 C 208.068 245.601,208.033 245.601,211.240 244.004 C 212.685 243.285,215.170 242.192,216.762 241.574 C 219.308 240.588,219.905 240.151,221.719 237.951 C 222.854 236.576,224.716 234.755,225.856 233.905 C 229.716 231.027,232.454 227.879,234.334 224.158 C 235.447 221.955,233.273 221.674,228.320 223.381 M244.397 224.789 C 238.515 226.886,237.673 236.376,243.219 238.054 C 244.172 238.342,248.666 236.775,250.373 235.560 C 250.978 235.129,252.240 234.447,253.178 234.045 C 254.662 233.409,254.978 233.051,255.608 231.299 L 256.333 229.284 255.316 227.951 C 252.825 224.684,248.335 223.384,244.397 224.789 M286.057 242.295 C 285.404 242.988,284.410 244.581,283.847 245.835 C 283.285 247.089,282.368 248.657,281.811 249.320 C 280.588 250.774,280.638 253.188,281.983 257.609 C 285.470 269.069,276.794 280.968,264.453 281.650 C 259.211 281.940,258.538 282.310,254.874 286.913 C 250.415 292.513,248.284 293.419,241.940 292.409 C 239.356 291.997,238.347 292.579,235.742 295.980 C 222.402 313.399,220.241 315.158,212.094 315.221 C 209.223 315.243,207.172 316.559,204.962 319.797 L 203.047 322.602 203.770 323.572 C 205.995 326.559,210.892 325.289,220.313 319.279 C 222.354 317.977,224.814 316.471,225.781 315.933 C 226.748 315.395,228.242 314.552,229.102 314.060 C 229.961 313.568,231.631 312.639,232.813 311.994 C 236.889 309.769,238.093 309.090,240.234 307.807 C 241.416 307.099,244.053 305.560,246.094 304.387 C 248.135 303.215,250.332 301.951,250.977 301.579 C 251.621 301.208,255.303 299.006,259.158 296.687 C 273.787 287.889,273.242 287.664,273.242 302.502 C 273.242 309.196,273.438 314.590,273.776 317.180 C 274.424 322.142,274.233 332.126,273.464 333.594 C 273.182 334.131,272.489 335.077,271.925 335.696 C 271.332 336.346,271.146 336.747,271.484 336.646 C 273.084 336.167,274.535 332.850,274.763 329.157 C 275.357 319.504,275.557 312.849,275.586 301.758 C 275.622 287.843,275.446 288.686,279.392 283.515 C 282.192 279.846,282.581 278.870,282.022 276.923 C 281.115 273.757,282.230 270.017,285.739 264.459 C 286.322 263.535,287.135 261.793,287.546 260.588 C 287.957 259.384,289.433 256.164,290.826 253.433 C 293.677 247.845,293.951 246.305,292.479 244.122 C 290.595 241.327,287.736 240.513,286.057 242.295 M14.748 245.345 C 9.126 246.671,2.643 252.763,0.554 258.683 C -0.532 261.763,-0.211 272.276,1.057 275.146 C 9.838 295.014,37.912 291.930,42.441 270.602 C 45.710 255.208,30.757 241.571,14.748 245.345 M25.140 249.410 C 29.610 250.332,34.875 254.496,36.841 258.663 C 44.153 274.166,27.023 291.235,12.771 282.646 C 10.431 281.235,4.687 276.606,4.687 276.130 C 4.687 275.953,4.340 275.623,3.915 275.395 C 3.262 275.046,3.176 275.089,3.359 275.675 C 3.553 276.298,3.528 276.295,3.115 275.647 C 2.862 275.251,2.624 274.723,2.586 274.475 C 2.548 274.227,2.399 273.835,2.255 273.605 C 2.112 273.376,1.889 272.672,1.762 272.043 C 1.634 271.413,1.417 270.371,1.280 269.727 C 0.870 267.802,1.075 261.523,1.548 261.523 C 1.589 261.523,1.683 261.202,1.758 260.809 C 1.832 260.417,2.021 259.801,2.177 259.442 C 2.334 259.083,2.505 258.586,2.558 258.337 C 2.611 258.089,2.862 257.562,3.115 257.166 C 3.542 256.496,3.559 256.495,3.354 257.149 C 2.996 258.293,4.273 257.270,8.986 252.637 C 9.587 252.046,10.272 251.563,10.508 251.563 C 10.744 251.563,10.938 251.417,10.938 251.239 C 10.938 250.905,14.039 249.400,15.430 249.059 C 16.374 248.827,23.577 249.087,25.140 249.410 M218.945 249.712 C 217.501 250.184,215.321 250.509,213.263 250.558 C 209.260 250.653,209.165 250.701,209.048 252.679 C 208.934 254.611,208.840 254.580,215.625 254.905 C 221.216 255.173,222.572 255.437,228.601 257.435 C 231.106 258.265,232.918 259.139,233.932 260.006 C 235.680 261.503,235.938 261.297,235.938 258.396 C 235.938 256.103,234.755 254.788,231.390 253.337 C 229.917 252.702,227.616 251.498,226.278 250.663 C 223.392 248.859,222.077 248.689,218.945 249.712 M117.266 264.922 C 116.551 265.637,116.700 266.901,117.770 269.199 C 118.906 271.641,118.997 273.562,118.109 276.379 C 117.315 278.899,117.514 279.727,119.562 282.428 C 120.455 283.606,121.639 285.537,122.193 286.719 L 123.200 288.867 123.221 310.742 L 123.242 332.617 124.136 334.556 C 125.547 337.616,130.118 340.703,147.852 350.573 C 150.859 352.247,156.221 355.329,159.766 357.423 C 163.311 359.517,167.881 362.160,169.922 363.298 C 171.963 364.436,175.742 366.593,178.320 368.091 C 195.179 377.891,196.358 378.477,199.254 378.503 C 201.051 378.519,204.894 376.607,206.598 374.849 L 207.909 373.496 206.298 373.905 C 201.484 375.127,199.954 370.394,201.537 359.180 C 201.812 357.231,201.957 350.427,201.922 341.109 C 201.879 329.751,201.981 326.023,202.347 325.581 C 202.733 325.117,202.722 324.867,202.294 324.339 C 201.930 323.890,201.914 323.772,202.246 323.972 C 202.515 324.133,202.734 324.171,202.734 324.057 C 202.734 323.942,202.163 323.559,201.465 323.205 C 200.767 322.851,198.174 321.210,195.703 319.559 C 193.232 317.907,189.277 315.442,186.914 314.080 C 177.502 308.657,174.498 306.731,171.231 304.021 C 167.626 301.031,164.737 299.426,162.251 299.031 C 152.202 297.438,151.583 297.121,139.288 287.305 C 129.798 279.728,129.264 279.176,127.899 275.525 C 125.524 269.178,119.258 262.929,117.266 264.922 M181.307 272.793 L 180.038 274.102 181.549 277.188 C 182.734 279.609,183.217 280.245,183.794 280.141 C 184.406 280.031,184.448 280.106,184.042 280.595 C 183.713 280.991,183.688 281.262,183.965 281.434 C 184.191 281.573,184.375 281.582,184.375 281.453 C 184.375 280.927,187.594 283.909,188.433 285.213 C 189.243 286.470,188.972 287.863,187.682 289.075 L 186.757 289.944 188.379 292.335 C 190.236 295.073,190.555 295.422,192.999 297.379 C 198.047 301.423,201.367 300.374,201.367 294.735 C 201.367 291.945,201.314 291.778,199.970 290.351 C 199.201 289.535,197.981 288.076,197.258 287.109 C 196.535 286.143,195.028 284.372,193.910 283.176 C 192.791 281.979,190.737 279.241,189.347 277.091 C 185.516 271.169,183.780 270.241,181.307 272.793 M49.313 282.029 C 44.723 284.828,46.035 291.399,51.385 292.410 C 53.014 292.718,55.677 291.587,56.698 290.154 C 60.130 285.334,54.340 278.964,49.313 282.029 M196.797 292.656 C 197.271 293.130,197.454 294.531,197.042 294.531 C 196.584 294.531,195.703 293.393,195.703 292.801 C 195.703 292.070,196.151 292.010,196.797 292.656 M353.707 322.185 C 342.935 327.374,345.800 343.486,357.664 344.438 C 368.393 345.299,374.317 332.769,367.006 324.677 C 363.798 321.125,358.116 320.061,353.707 322.185 M361.583 325.586 C 368.401 328.434,367.804 338.337,360.694 340.360 C 351.743 342.906,346.904 330.686,354.933 325.811 C 356.414 324.912,359.703 324.800,361.583 325.586 M260.742 342.753 C 257.305 344.740,251.768 347.950,248.438 349.884 C 242.912 353.095,238.482 355.583,235.938 356.907 C 235.400 357.186,232.569 358.546,229.645 359.929 C 225.198 362.032,216.406 367.759,216.406 368.553 C 216.406 368.753,218.236 368.189,220.313 367.350 C 222.820 366.336,230.588 361.874,232.617 360.282 C 234.226 359.021,234.359 358.926,236.133 357.778 C 241.127 354.545,248.421 350.261,253.702 347.458 C 255.630 346.434,259.058 344.448,261.319 343.044 C 263.580 341.640,265.957 340.173,266.602 339.784 C 267.246 339.394,267.598 339.090,267.383 339.108 C 267.168 339.125,264.180 340.766,260.742 342.753 " stroke="none" fill="#d9ab7b" fill-rule="evenodd"></path><path id="path7" d="M131.204 63.087 C 127.133 65.299,128.485 69.449,135.704 76.898 C 143.400 84.841,143.534 85.480,138.618 90.820 C 123.820 106.896,116.628 124.784,115.395 148.585 C 115.060 155.058,114.626 155.696,110.156 156.288 C 99.054 157.759,92.059 164.230,90.395 174.569 C 89.460 180.378,89.770 244.876,90.749 248.242 C 93.364 257.230,99.899 262.811,108.796 263.653 C 112.651 264.018,114.034 264.531,115.731 266.228 L 116.797 267.294 116.797 266.312 C 116.797 264.129,118.434 264.101,121.358 266.234 C 122.161 266.820,122.196 266.810,121.996 266.044 C 121.879 265.599,121.667 265.234,121.523 265.234 C 121.380 265.234,120.931 264.663,120.526 263.965 C 119.453 262.112,113.637 256.250,112.872 256.250 C 112.513 256.250,111.209 256.789,109.973 257.449 C 104.918 260.146,99.655 257.794,96.187 251.288 C 93.676 246.577,93.749 247.810,93.756 210.367 C 93.763 169.998,93.656 170.935,98.864 165.428 C 102.093 162.014,104.930 160.937,113.294 159.952 C 117.815 159.419,118.783 157.719,119.179 149.609 C 119.852 135.860,121.199 129.016,125.254 118.750 C 128.993 109.285,133.523 102.243,141.950 92.795 C 145.868 88.402,146.851 86.603,146.872 83.789 C 146.894 80.933,146.942 80.903,151.374 80.984 L 155.273 81.055 162.891 77.276 C 188.032 64.803,212.447 64.799,237.500 77.265 L 245.117 81.055 248.828 81.055 C 253.374 81.055,253.361 81.047,253.605 84.089 C 253.866 87.333,254.418 88.305,258.704 93.064 C 273.420 109.405,280.112 125.923,281.219 148.639 C 281.690 158.321,282.518 159.542,289.023 160.153 C 298.429 161.035,304.039 165.462,306.142 173.663 C 307.190 177.749,307.208 242.992,306.162 246.771 C 304.371 253.244,299.397 258.554,295.098 258.585 C 292.419 258.604,292.304 256.593,294.714 251.841 C 297.650 246.050,297.419 243.740,293.527 239.997 C 288.333 235.001,283.728 235.331,281.665 240.846 C 278.754 248.625,275.852 248.901,272.237 241.741 C 271.412 240.106,270.614 239.163,269.429 238.420 C 268.518 237.850,267.686 237.260,267.578 237.109 C 267.471 236.959,267.006 236.638,266.546 236.396 C 265.706 235.953,263.998 233.351,263.510 231.769 C 262.978 230.047,264.561 229.255,267.966 229.539 C 275.020 230.127,275.021 224.735,267.969 218.947 C 264.711 216.273,263.694 214.756,262.475 210.758 C 260.379 203.880,256.086 203.158,249.609 208.595 C 247.937 209.999,245.339 211.681,243.555 212.514 C 240.680 213.858,235.561 217.213,237.265 216.637 C 237.673 216.499,239.601 216.111,241.550 215.775 C 245.818 215.038,247.116 214.415,250.305 211.569 C 255.940 206.541,258.239 206.938,260.359 213.304 C 261.408 216.456,261.626 216.774,265.297 220.508 C 270.714 226.017,270.627 226.393,263.867 226.670 C 258.642 226.883,256.959 227.861,255.517 231.519 L 254.719 233.543 256.628 234.915 C 259.346 236.867,261.805 238.033,265.708 239.217 C 268.829 240.165,269.250 240.416,270.786 242.250 C 274.403 246.569,275.032 247.152,277.373 248.359 C 281.416 250.444,282.173 250.033,284.423 244.532 C 285.970 240.748,287.571 240.218,290.887 242.391 C 294.096 244.493,294.082 247.052,290.826 253.433 C 288.456 258.078,286.525 262.827,286.867 263.169 C 286.949 263.251,288.232 263.421,289.716 263.545 C 298.362 264.270,306.408 258.322,309.624 248.828 C 310.591 245.973,310.765 176.460,309.815 172.656 C 307.653 164.004,301.184 158.193,292.008 156.661 C 285.606 155.592,285.392 155.335,284.992 148.242 C 283.655 124.501,276.416 106.623,261.695 90.712 C 256.887 85.515,257.038 84.774,264.443 77.159 C 272.160 69.223,273.477 65.328,269.191 63.112 C 265.886 61.403,263.603 62.599,255.932 70.059 C 247.614 78.147,247.593 78.153,240.039 74.237 C 222.527 65.159,200.479 61.851,183.789 65.797 C 183.359 65.899,181.497 66.338,179.650 66.772 C 174.163 68.064,168.549 70.171,161.914 73.430 C 152.306 78.150,152.833 78.263,143.944 69.578 C 136.721 62.521,134.411 61.344,131.204 63.087 M159.763 117.552 C 150.043 120.509,151.809 134.375,161.906 134.375 C 167.068 134.375,170.339 131.016,170.365 125.692 C 170.391 120.171,164.933 115.980,159.763 117.552 M235.843 117.743 C 226.675 121.016,228.882 134.375,238.591 134.375 C 246.293 134.375,250.012 125.366,244.561 119.914 C 242.033 117.387,238.976 116.625,235.843 117.743 M163.639 119.913 C 168.651 121.350,169.634 128.198,165.253 131.151 C 163.555 132.295,160.488 132.350,158.713 131.267 C 152.597 127.538,156.762 117.940,163.639 119.913 M240.294 119.932 C 242.089 120.430,244.402 122.938,244.743 124.756 C 245.694 129.826,239.705 133.941,235.320 131.230 C 229.239 127.473,233.402 118.018,240.294 119.932 M175.391 200.340 C 174.424 200.722,172.402 201.740,170.898 202.603 C 166.935 204.878,159.420 209.227,144.141 218.086 C 136.729 222.384,129.628 226.375,128.361 226.955 L 126.058 228.009 127.345 228.458 C 130.269 229.477,131.457 229.050,141.144 223.506 C 181.131 200.618,178.889 201.566,182.872 205.856 C 185.173 208.334,185.310 208.311,185.054 205.486 C 184.594 200.415,180.594 198.285,175.391 200.340 M225.058 222.552 C 219.027 225.365,218.515 225.692,215.879 228.410 C 214.343 229.993,212.119 231.933,210.938 232.721 C 207.844 234.784,207.763 234.917,210.156 234.015 C 211.338 233.569,212.363 233.028,212.435 232.813 C 212.506 232.598,212.770 232.416,213.021 232.409 C 213.271 232.401,214.862 231.081,216.555 229.476 C 219.681 226.511,220.027 226.266,223.828 224.333 C 227.392 222.521,232.513 219.347,231.543 219.552 C 231.489 219.563,228.571 220.913,225.058 222.552 M196.943 253.181 C 194.838 254.223,193.587 256.754,192.462 262.252 C 190.957 269.608,192.271 271.286,199.541 271.293 C 203.690 271.297,204.309 271.395,206.399 272.370 C 209.129 273.643,219.874 277.009,222.002 277.257 C 223.281 277.406,223.869 277.175,226.103 275.647 C 229.187 273.536,230.381 273.047,232.447 273.047 C 234.385 273.047,234.390 272.659,232.462 271.736 C 230.494 270.794,228.651 271.053,224.493 272.857 C 219.676 274.947,214.403 274.472,207.723 271.345 C 204.475 269.824,201.507 269.045,199.346 269.146 C 194.104 269.391,193.270 268.000,194.736 261.450 C 196.301 254.456,198.426 253.321,202.930 257.074 C 204.971 258.776,208.694 260.651,210.971 261.125 C 212.328 261.407,218.445 262.831,223.047 263.936 C 224.443 264.271,225.762 264.580,225.977 264.623 C 228.033 265.036,229.284 265.346,230.273 265.689 C 231.378 266.071,231.974 266.300,234.082 267.152 C 235.542 267.742,236.391 267.983,237.801 268.207 C 239.301 268.446,239.288 268.359,237.459 266.016 C 236.873 265.264,236.170 263.888,235.899 262.958 C 234.996 259.866,231.553 257.942,222.852 255.666 C 220.791 255.127,211.368 254.460,207.934 254.610 C 206.580 254.669,205.089 254.393,203.442 253.778 C 199.646 252.361,198.765 252.280,196.943 253.181 M241.039 271.777 C 241.026 272.261,240.682 272.990,240.273 273.398 C 239.466 274.206,239.839 275.000,241.026 275.000 C 243.343 275.000,244.653 279.877,243.623 284.671 C 242.201 291.286,243.549 293.476,248.197 292.103 C 251.138 291.234,255.752 285.544,255.563 283.019 C 255.365 280.372,255.082 280.336,253.849 282.805 C 251.511 287.482,247.622 290.289,245.450 288.865 C 244.148 288.012,243.955 286.678,244.523 282.450 C 245.133 277.914,245.346 277.465,247.311 276.586 L 248.856 275.894 246.490 275.392 C 244.150 274.895,243.035 274.053,241.527 271.642 C 241.084 270.934,241.060 270.940,241.039 271.777 M177.743 275.559 C 177.502 276.289,176.632 277.823,175.808 278.967 L 174.311 281.048 175.415 282.652 C 180.116 289.485,187.410 291.947,188.855 287.188 C 189.270 285.820,185.114 280.641,184.274 281.481 C 184.009 281.746,182.839 279.884,181.422 276.946 C 179.912 273.813,178.496 273.279,177.743 275.559 M50.195 281.075 C 49.336 281.380,48.590 281.632,48.538 281.635 C 48.485 281.638,47.914 282.370,47.268 283.262 C 43.503 288.459,49.098 295.035,54.857 292.182 C 61.427 288.926,57.105 278.627,50.195 281.075 M55.078 282.129 C 58.953 284.774,58.475 290.275,54.223 291.976 C 49.285 293.952,44.532 288.558,47.264 284.078 C 48.946 281.318,52.567 280.415,55.078 282.129 M277.455 286.059 C 275.691 288.652,275.638 289.104,275.595 301.758 C 275.558 312.839,275.355 319.521,274.765 329.122 C 274.530 332.948,273.101 336.183,271.456 336.613 C 271.042 336.721,270.703 336.965,270.703 337.155 C 270.703 337.345,270.540 337.500,270.341 337.500 C 270.142 337.500,268.955 338.179,267.704 339.010 C 263.466 341.823,257.223 345.589,253.702 347.458 C 248.421 350.261,241.127 354.545,236.133 357.778 C 234.383 358.910,234.259 358.998,232.617 360.273 C 229.327 362.828,221.933 366.810,217.753 368.280 C 213.849 369.652,209.535 372.165,206.745 374.692 C 202.908 378.166,200.037 379.060,196.253 377.956 C 194.428 377.424,194.381 377.428,195.277 378.054 C 200.228 381.510,203.175 380.822,216.016 373.214 C 225.117 367.821,227.582 366.392,235.156 362.117 C 240.120 359.316,244.911 356.548,255.469 350.384 C 257.939 348.941,260.840 347.278,261.914 346.687 C 272.190 341.039,275.787 338.403,277.113 335.547 C 277.779 334.113,278.839 289.333,278.312 284.887 C 278.307 284.846,277.921 285.374,277.455 286.059 M122.395 309.766 C 122.539 339.970,120.360 335.671,141.602 347.663 C 145.898 350.089,151.875 353.485,154.883 355.210 C 162.817 359.759,166.378 361.719,166.705 361.716 C 167.114 361.711,156.850 355.634,149.023 351.248 C 129.572 340.347,125.567 337.660,124.136 334.556 L 123.242 332.617 123.198 310.742 C 123.167 295.632,123.019 288.565,122.719 287.891 C 122.396 287.164,122.313 292.756,122.395 309.766 M195.703 292.801 C 195.703 293.393,196.584 294.531,197.042 294.531 C 197.454 294.531,197.271 293.130,196.797 292.656 C 196.151 292.010,195.703 292.070,195.703 292.801 M168.359 362.679 C 168.359 362.787,169.063 363.233,169.922 363.672 C 170.781 364.110,171.484 364.381,171.484 364.274 C 171.484 364.166,170.781 363.720,169.922 363.281 C 169.063 362.843,168.359 362.572,168.359 362.679 M172.070 364.737 C 172.285 364.963,173.516 365.724,174.805 366.427 C 176.094 367.130,176.973 367.520,176.758 367.294 C 176.543 367.068,175.313 366.308,174.023 365.605 C 172.734 364.901,171.855 364.511,172.070 364.737 M178.906 368.715 C 179.443 369.154,180.059 369.515,180.273 369.517 C 180.691 369.519,179.985 368.979,178.711 368.320 C 178.192 368.052,178.258 368.185,178.906 368.715 " stroke="none" fill="#94a4ac" fill-rule="evenodd"></path><path id="path8" d="M387.305 56.104 C 375.493 59.076,374.954 74.889,386.560 77.926 C 397.358 80.750,404.988 66.999,396.976 59.153 C 394.624 56.850,390.061 55.411,387.305 56.104 M6.318 82.840 C -0.811 86.402,-2.097 95.202,3.711 100.675 C 11.021 107.565,22.278 102.550,22.262 92.411 C 22.249 84.417,13.578 79.212,6.318 82.840 M183.782 229.221 C 182.256 229.864,178.516 232.286,178.516 232.631 C 178.516 232.901,182.769 230.950,184.943 229.682 C 187.132 228.406,186.403 228.116,183.782 229.221 M246.289 237.404 C 244.785 237.962,243.481 238.476,243.392 238.546 C 243.302 238.615,243.167 239.858,243.090 241.309 C 242.953 243.897,242.179 248.455,241.412 251.188 C 241.199 251.949,240.382 253.619,239.597 254.899 C 237.147 258.895,236.931 259.413,237.547 259.803 C 238.408 260.348,238.522 260.248,239.032 258.496 C 239.298 257.583,240.195 255.693,241.026 254.297 C 242.970 251.027,243.218 250.324,243.730 246.646 C 244.243 242.958,246.113 240.934,251.739 237.977 C 252.431 237.613,252.363 237.519,251.008 236.952 C 249.215 236.203,249.630 236.164,246.289 237.404 M201.741 245.214 C 202.230 246.235,202.753 247.466,202.904 247.949 C 203.238 249.021,204.297 249.119,204.297 248.079 C 204.297 247.039,203.217 245.286,201.930 244.237 L 200.851 243.358 201.741 245.214 M278.247 254.202 C 278.370 255.006,278.673 256.807,278.920 258.203 C 280.738 268.489,273.625 278.002,263.788 278.439 C 259.374 278.635,259.197 278.767,260.990 280.520 C 265.723 285.147,278.857 277.454,282.023 268.201 C 283.853 262.851,282.265 254.218,279.258 253.170 L 278.023 252.739 278.247 254.202 M186.133 270.313 C 186.216 270.742,186.118 271.094,185.915 271.094 C 185.314 271.094,185.496 272.128,186.199 272.706 C 186.557 273.001,187.964 274.961,189.324 277.061 C 190.685 279.162,192.809 281.985,194.044 283.336 C 195.279 284.686,197.171 286.920,198.249 288.301 C 199.326 289.682,200.529 290.874,200.920 290.949 C 202.513 291.256,204.696 287.935,205.254 284.356 C 205.404 283.400,205.624 282.275,205.744 281.856 C 205.930 281.205,205.781 281.247,204.708 282.149 C 201.438 284.901,195.618 281.813,191.198 274.980 C 188.323 270.535,185.712 268.129,186.133 270.313 M235.120 291.504 C 234.162 292.847,232.329 295.504,231.045 297.409 C 229.761 299.314,227.506 302.363,226.034 304.185 C 223.183 307.715,222.988 308.802,225.392 307.762 C 226.521 307.273,230.078 303.133,230.078 302.308 C 230.078 302.117,230.693 301.154,231.445 300.169 C 232.197 299.184,232.813 298.188,232.813 297.956 C 232.813 297.724,233.220 296.991,233.719 296.326 C 235.060 294.538,237.501 289.063,236.958 289.063 C 236.904 289.063,236.077 290.161,235.120 291.504 M70.117 378.078 C 61.896 380.246,58.652 390.049,64.104 396.244 C 70.879 403.940,83.594 399.387,83.594 389.265 C 83.594 381.973,76.785 376.321,70.117 378.078 " stroke="none" fill="#ec5c74" fill-rule="evenodd"></path></g></svg>